<svg width="800" height="800" viewBox="0 0 800 800" fill="none" xmlns="http://www.w3.org/2000/svg">
  <rect width="800" height="800" fill="#0A192F"/>
  
  <!-- Grid Lines -->
  <path d="M0 200H800" stroke="#1E3A8A" stroke-width="2" stroke-opacity="0.5"/>
  <path d="M0 400H800" stroke="#1E3A8A" stroke-width="2" stroke-opacity="0.5"/>
  <path d="M0 600H800" stroke="#1E3A8A" stroke-width="2" stroke-opacity="0.5"/>
  <path d="M200 0V800" stroke="#1E3A8A" stroke-width="2" stroke-opacity="0.5"/>
  <path d="M400 0V800" stroke="#1E3A8A" stroke-width="2" stroke-opacity="0.5"/>
  <path d="M600 0V800" stroke="#1E3A8A" stroke-width="2" stroke-opacity="0.5"/>
  
  <!-- Performance Charts -->
  <path d="M100 500L200 450L300 400L400 350L500 300L600 250L700 200" stroke="#3B82F6" stroke-width="4" fill="none" opacity="0.8"/>
  <path d="M100 600L200 550L300 500L400 450L500 400L600 350L700 300" stroke="#60A5FA" stroke-width="4" fill="none" opacity="0.8"/>
  
  <!-- Additional Chart Lines -->
  <path d="M100 400L200 380L300 360L400 340L500 320L600 300L700 280" stroke="#93C5FD" stroke-width="3" fill="none" opacity="0.7"/>
  <path d="M100 300L200 320L300 340L400 360L500 380L600 400L700 420" stroke="#93C5FD" stroke-width="3" fill="none" opacity="0.7"/>
  
  <!-- Data Points -->
  <circle cx="100" cy="500" r="6" fill="#3B82F6" opacity="0.9"/>
  <circle cx="200" cy="450" r="6" fill="#3B82F6" opacity="0.9"/>
  <circle cx="300" cy="400" r="6" fill="#3B82F6" opacity="0.9"/>
  <circle cx="400" cy="350" r="6" fill="#3B82F6" opacity="0.9"/>
  <circle cx="500" cy="300" r="6" fill="#3B82F6" opacity="0.9"/>
  <circle cx="600" cy="250" r="6" fill="#3B82F6" opacity="0.9"/>
  <circle cx="700" cy="200" r="6" fill="#3B82F6" opacity="0.9"/>
  
  <!-- Performance Metrics -->
  <text x="100" y="100" fill="#60A5FA" font-family="Arial" font-size="20" opacity="0.9">APY: 15.2%</text>
  <text x="100" y="120" fill="#60A5FA" font-family="Arial" font-size="20" opacity="0.9">TVL: $2.4M</text>
  <text x="100" y="140" fill="#60A5FA" font-family="Arial" font-size="20" opacity="0.9">Stakers: 1,234</text>
  
  <!-- Network Nodes -->
  <circle cx="400" cy="400" r="80" fill="#1E3A8A" fill-opacity="0.3"/>
  <circle cx="400" cy="400" r="50" fill="#1E3A8A" fill-opacity="0.4"/>
  <circle cx="400" cy="400" r="20" fill="#3B82F6" opacity="0.9"/>
  
  <!-- Connection Lines -->
  <line x1="400" y1="400" x2="300" y2="300" stroke="#3B82F6" stroke-width="3" stroke-opacity="0.7"/>
  <line x1="400" y1="400" x2="500" y2="300" stroke="#3B82F6" stroke-width="3" stroke-opacity="0.7"/>
  <line x1="400" y1="400" x2="300" y2="500" stroke="#3B82F6" stroke-width="3" stroke-opacity="0.7"/>
  <line x1="400" y1="400" x2="500" y2="500" stroke="#3B82F6" stroke-width="3" stroke-opacity="0.7"/>
  
  <!-- Additional Network Nodes -->
  <circle cx="300" cy="300" r="12" fill="#3B82F6" opacity="0.9"/>
  <circle cx="500" cy="300" r="12" fill="#3B82F6" opacity="0.9"/>
  <circle cx="300" cy="500" r="12" fill="#3B82F6" opacity="0.9"/>
  <circle cx="500" cy="500" r="12" fill="#3B82F6" opacity="0.9"/>
</svg> 